<svg width="17" height="16" viewBox="0 0 17 16" fill="none" xmlns="http://www.w3.org/2000/svg">
<path fill-rule="evenodd" clip-rule="evenodd" d="M7.43034 3.89411L9.43274 1.89714C9.46197 1.86792 9.49923 1.84802 9.53981 1.83995C9.58038 1.83188 9.62245 1.836 9.66067 1.8518C9.6989 1.86761 9.73156 1.89437 9.75451 1.9287C9.77746 1.96304 9.78968 2.0034 9.7896 2.04466V6.0386C9.78968 6.07986 9.77746 6.12022 9.75451 6.15455C9.73156 6.18889 9.6989 6.21565 9.66067 6.23145C9.62245 6.24725 9.58038 6.25138 9.53981 6.24331C9.49923 6.23524 9.46197 6.21533 9.43274 6.18612L7.43034 4.18915C7.41088 4.16979 7.39544 4.1468 7.38491 4.12149C7.37438 4.09617 7.36895 4.06903 7.36895 4.04163C7.36895 4.01422 7.37438 3.98708 7.38491 3.96177C7.39544 3.93645 7.41088 3.91346 7.43034 3.89411ZM4.56629 3.41653C4.40005 3.41653 4.24062 3.48239 4.12308 3.59962C4.00553 3.71685 3.93949 3.87584 3.93949 4.04163C3.93949 4.20741 4.00553 4.36641 4.12308 4.48364C4.24062 4.60086 4.40005 4.66672 4.56629 4.66672C4.73253 4.66672 4.89196 4.60086 5.0095 4.48364C5.12705 4.36641 5.19309 4.20741 5.19309 4.04163C5.19309 3.87584 5.12705 3.71685 5.0095 3.59962C4.89196 3.48239 4.73253 3.41653 4.56629 3.41653V3.41653ZM2.6859 4.04163C2.686 3.69785 2.78086 3.36072 2.96011 3.06708C3.13935 2.77343 3.39608 2.53457 3.70225 2.37661C4.00842 2.21864 4.35223 2.14765 4.69612 2.17139C5.04001 2.19512 5.37074 2.31267 5.65217 2.5112C5.93359 2.70972 6.15489 2.98157 6.29186 3.29704C6.42883 3.61251 6.47622 3.95946 6.42883 4.29997C6.38145 4.64048 6.24112 4.96145 6.02318 5.2278C5.80524 5.49415 5.51809 5.69564 5.19309 5.81023V10.1909C5.61153 10.3384 5.96422 10.6286 6.18882 11.0103C6.41342 11.3921 6.49546 11.8407 6.42045 12.2769C6.34544 12.7131 6.1182 13.1089 5.7789 13.3942C5.4396 13.6794 5.01009 13.8359 4.56629 13.8359C4.12249 13.8359 3.69298 13.6794 3.35368 13.3942C3.01438 13.1089 2.78714 12.7131 2.71213 12.2769C2.63712 11.8407 2.71916 11.3921 2.94376 11.0103C3.16836 10.6286 3.52105 10.3384 3.93949 10.1909V5.81023C3.57279 5.68093 3.25531 5.44141 3.03079 5.12466C2.80628 4.80791 2.68578 4.42952 2.6859 4.04163V4.04163ZM10.6253 3.41653H9.7896V4.66672H10.6253C10.847 4.66672 11.0596 4.75453 11.2163 4.91084C11.373 5.06714 11.4611 5.27913 11.4611 5.50018V10.1909C11.0426 10.3384 10.6899 10.6286 10.4653 11.0103C10.2407 11.3921 10.1587 11.8407 10.2337 12.2769C10.3087 12.7131 10.536 13.1089 10.8753 13.3942C11.2145 13.6794 11.6441 13.8359 12.0879 13.8359C12.5317 13.8359 12.9612 13.6794 13.3005 13.3942C13.6398 13.1089 13.867 12.7131 13.942 12.2769C14.017 11.8407 13.935 11.3921 13.7104 11.0103C13.4858 10.6286 13.1331 10.3384 12.7147 10.1909V5.50018C12.7147 4.94756 12.4945 4.41758 12.1027 4.02682C11.7109 3.63606 11.1795 3.41653 10.6253 3.41653ZM11.4611 11.9595C11.4611 11.7937 11.5271 11.6347 11.6446 11.5175C11.7622 11.4003 11.9216 11.3344 12.0879 11.3344C12.2541 11.3344 12.4135 11.4003 12.5311 11.5175C12.6486 11.6347 12.7147 11.7937 12.7147 11.9595C12.7147 12.1253 12.6486 12.2843 12.5311 12.4015C12.4135 12.5187 12.2541 12.5846 12.0879 12.5846C11.9216 12.5846 11.7622 12.5187 11.6446 12.4015C11.5271 12.2843 11.4611 12.1253 11.4611 11.9595ZM4.56629 11.3344C4.40005 11.3344 4.24062 11.4003 4.12308 11.5175C4.00553 11.6347 3.93949 11.7937 3.93949 11.9595C3.93949 12.1253 4.00553 12.2843 4.12308 12.4015C4.24062 12.5187 4.40005 12.5846 4.56629 12.5846C4.73253 12.5846 4.89196 12.5187 5.0095 12.4015C5.12705 12.2843 5.19309 12.1253 5.19309 11.9595C5.19309 11.7937 5.12705 11.6347 5.0095 11.5175C4.89196 11.4003 4.73253 11.3344 4.56629 11.3344V11.3344Z" fill="white"/>
</svg>
